<svg width="111" height="25" viewBox="0 0 111 25" fill="none" xmlns="http://www.w3.org/2000/svg">
<path d="M0.703438 24.68H24.7034V0.68H0.703438V24.68ZM35.5123 13.184H43.8643V15.752H35.5123V13.184ZM35.7523 20.384H45.2323V23H32.6323V6.2H44.8963V8.816H35.7523V20.384ZM51.1863 23L45.6903 10.184H48.8103L53.5383 21.488H52.0023L56.8983 10.184H59.7783L54.2823 23H51.1863ZM66.8458 23.168C65.4218 23.168 64.1738 22.888 63.1018 22.328C62.0458 21.752 61.2218 20.968 60.6298 19.976C60.0538 18.984 59.7658 17.856 59.7658 16.592C59.7658 15.312 60.0458 14.184 60.6058 13.208C61.1818 12.216 61.9658 11.44 62.9578 10.88C63.9658 10.32 65.1098 10.04 66.3898 10.04C67.6378 10.04 68.7498 10.312 69.7258 10.856C70.7018 11.4 71.4698 12.168 72.0298 13.16C72.5898 14.152 72.8698 15.32 72.8698 16.664C72.8698 16.792 72.8618 16.936 72.8458 17.096C72.8458 17.256 72.8378 17.408 72.8218 17.552H62.1418V15.56H71.2378L70.0618 16.184C70.0778 15.448 69.9258 14.8 69.6058 14.24C69.2858 13.68 68.8458 13.24 68.2858 12.92C67.7418 12.6 67.1098 12.44 66.3898 12.44C65.6538 12.44 65.0058 12.6 64.4458 12.92C63.9018 13.24 63.4698 13.688 63.1498 14.264C62.8458 14.824 62.6938 15.488 62.6938 16.256V16.736C62.6938 17.504 62.8698 18.184 63.2218 18.776C63.5738 19.368 64.0698 19.824 64.7098 20.144C65.3498 20.464 66.0858 20.624 66.9178 20.624C67.6378 20.624 68.2858 20.512 68.8618 20.288C69.4378 20.064 69.9498 19.712 70.3978 19.232L72.0058 21.08C71.4298 21.752 70.7018 22.272 69.8218 22.64C68.9578 22.992 67.9658 23.168 66.8458 23.168ZM82.5434 10.04C83.5674 10.04 84.4794 10.24 85.2794 10.64C86.0954 11.04 86.7354 11.656 87.1994 12.488C87.6634 13.304 87.8954 14.36 87.8954 15.656V23H84.8954V16.04C84.8954 14.904 84.6234 14.056 84.0794 13.496C83.5514 12.936 82.8074 12.656 81.8474 12.656C81.1434 12.656 80.5194 12.8 79.9754 13.088C79.4314 13.376 79.0074 13.808 78.7034 14.384C78.4154 14.944 78.2714 15.656 78.2714 16.52V23H75.2714V10.184H78.1274V13.64L77.6234 12.584C78.0714 11.768 78.7194 11.144 79.5674 10.712C80.4314 10.264 81.4234 10.04 82.5434 10.04ZM96.0451 23.168C94.6371 23.168 93.5491 22.808 92.7811 22.088C92.0131 21.352 91.6291 20.272 91.6291 18.848V7.352H94.6291V18.776C94.6291 19.384 94.7811 19.856 95.0851 20.192C95.4051 20.528 95.8451 20.696 96.4051 20.696C97.0771 20.696 97.6371 20.52 98.0851 20.168L98.9251 22.304C98.5731 22.592 98.1411 22.808 97.6291 22.952C97.1171 23.096 96.5891 23.168 96.0451 23.168ZM89.5171 12.68V10.28H98.0611V12.68H89.5171ZM104.873 23.168C103.801 23.168 102.769 23.032 101.777 22.76C100.801 22.472 100.025 22.128 99.449 21.728L100.601 19.448C101.177 19.816 101.865 20.12 102.665 20.36C103.465 20.6 104.265 20.72 105.065 20.72C106.009 20.72 106.689 20.592 107.105 20.336C107.537 20.08 107.753 19.736 107.753 19.304C107.753 18.952 107.609 18.688 107.321 18.512C107.033 18.32 106.657 18.176 106.193 18.08C105.729 17.984 105.209 17.896 104.633 17.816C104.073 17.736 103.505 17.632 102.929 17.504C102.369 17.36 101.857 17.16 101.393 16.904C100.929 16.632 100.553 16.272 100.265 15.824C99.977 15.376 99.833 14.784 99.833 14.048C99.833 13.232 100.065 12.528 100.529 11.936C100.993 11.328 101.641 10.864 102.473 10.544C103.321 10.208 104.321 10.04 105.473 10.04C106.337 10.04 107.209 10.136 108.089 10.328C108.969 10.52 109.697 10.792 110.273 11.144L109.121 13.424C108.513 13.056 107.897 12.808 107.273 12.68C106.665 12.536 106.057 12.464 105.449 12.464C104.537 12.464 103.857 12.6 103.409 12.872C102.977 13.144 102.761 13.488 102.761 13.904C102.761 14.288 102.905 14.576 103.193 14.768C103.481 14.96 103.857 15.112 104.321 15.224C104.785 15.336 105.297 15.432 105.857 15.512C106.433 15.576 107.001 15.68 107.561 15.824C108.121 15.968 108.633 16.168 109.097 16.424C109.577 16.664 109.961 17.008 110.249 17.456C110.537 17.904 110.681 18.488 110.681 19.208C110.681 20.008 110.441 20.704 109.961 21.296C109.497 21.888 108.833 22.352 107.969 22.688C107.105 23.008 106.073 23.168 104.873 23.168Z" fill="#6A8B86"/>
</svg>
