<svg width="70" height="72" viewBox="0 0 70 72" fill="none" xmlns="http://www.w3.org/2000/svg">
<path d="M35.1699 71.3248C15.9812 71.3248 0.425781 55.5299 0.425781 36.0462C0.425781 16.5624 15.9812 0.767578 35.1699 0.767578C54.3584 0.767578 69.914 16.5624 69.914 36.0462C69.914 55.5299 54.3584 71.3248 35.1699 71.3248ZM35.1699 64.2691C50.5209 64.2691 62.9652 51.6334 62.9652 36.0462C62.9652 20.4591 50.5209 7.8233 35.1699 7.8233C19.819 7.8233 7.3746 20.4591 7.3746 36.0462C7.3746 51.6334 19.819 64.2691 35.1699 64.2691ZM31.6955 46.6298H38.6443V53.6855H31.6955V46.6298ZM38.6443 40.8268V43.1019H31.6955V37.8101C31.6955 35.8617 33.251 34.2823 35.1699 34.2823C38.0481 34.2823 40.3815 31.913 40.3815 28.9905C40.3815 26.0679 38.0481 23.6987 35.1699 23.6987C32.6416 23.6987 30.5336 25.5269 30.0583 27.9525L23.2433 26.5685C24.3519 20.9088 29.2703 16.643 35.1699 16.643C41.8859 16.643 47.3303 22.1711 47.3303 28.9905C47.3303 34.5839 43.6673 39.3088 38.6443 40.8268Z" fill="black"/>
</svg>
